<svg xmlns="http://www.w3.org/2000/svg" width="256" height="193" viewBox="0 0 67.734 51.065"><path d="M34.085 1.04a34.45 34.45 0 0 0-7.124.716c-4.45.915-9.055 3.01-12.887 5.86-1.58 1.194-4.458 3.934-5.73 5.493-3.847 4.702-6.374 10.563-7.178 16.645-.402 3.033-.25 7.53.328 9.76 1.512 5.817 5.542 8.856 13.254 10 3.383.498 5.562.55 20.808.51 12.975-.034 15.618-.08 17.186-.308 5.36-.776 8.06-1.86 10.372-4.16 2.58-2.587 3.694-6.05 3.696-11.548.002-5.3-1.04-9.79-3.36-14.487-1.67-3.526-3.997-6.7-6.858-9.353-6.115-5.896-14.105-9.075-22.507-9.1z" fill="#9cc3e4" stroke="#12538a" stroke-width="1.854"/><path d="M46.53 18.202c2.142 0 3.875 1.78 3.875 3.978s-1.718 3.978-3.875 3.978-3.875-1.78-3.875-3.978 1.718-3.978 3.875-3.978zm-24.466-.1c2.142 0 3.875 1.78 3.875 3.978s-1.718 3.978-3.875 3.978-3.875-1.78-3.875-3.978 1.718-3.978 3.875-3.978zM19.072 45.28c-4.636-.732-8.202-3.422-10.452-7.884-.638-1.264-1.5-3.697-1.36-3.837.047-.047.312.12.6.37 1.8 1.627 3.578 2.29 5.287 1.976 1.567-.29 2.914-1.143 6.187-3.924 2.973-2.525 4.458-3.177 7-3.073 1.286.053 1.595.114 2.51.5 1.235.52 2.538 1.368 3.945 2.57.56.48 1.05.872 1.086.872s.44-.336.898-.748c1.135-1.02 2.912-2.172 4.16-2.697.908-.382 1.22-.444 2.503-.496 2.676-.11 3.876.47 7.813 3.772 2.693 2.26 3.847 2.95 5.377 3.216 1.555.27 3.238-.317 4.927-1.722.435-.362.836-.66.892-.66.12-.004.025.433-.33 1.518-.4 1.222-1.748 3.88-2.415 4.763-1.786 2.366-4.002 4.01-6.55 4.862-1.783.595-2.463.694-4.696.678-1.915-.013-2.268-.054-3.704-.428-3.727-.97-6.95-3.268-8.403-5.997-.225-.423-.45-.766-.5-.762s-.265.36-.477.795c-.793 1.62-2.67 3.427-4.727 4.548-2.178 1.187-4.398 1.777-6.993 1.857-.982.03-2.138 0-2.57-.068z" fill="#12538a"/></svg>