<svg xmlns="http://www.w3.org/2000/svg" width="128" height="96.09" viewBox="0 0 33.867 25.424"><path d="M17.04.464a17.225 17.225 0 0 0-3.562.358c-2.225.457-4.527 1.505-6.443 2.93a22.08 22.08 0 0 0-2.865 2.746C2.247 8.85.984 11.78.582 14.82c-.2 1.516-.125 3.765.164 4.88.756 2.908 2.77 4.428 6.627 5 1.69.25 2.78.275 10.404.255 6.487-.017 7.81-.04 8.593-.154 2.68-.388 4.03-.93 5.186-2.08 1.3-1.293 1.847-3.025 1.848-5.774a15.59 15.59 0 0 0-1.68-7.243 15.32 15.32 0 0 0-3.429-4.676A16.18 16.18 0 0 0 17.041.478z" fill="#9cc3e4" stroke="#12538a" stroke-width=".927"/><path d="M23.264 9.045c1.07 0 1.937.9 1.937 1.99s-.86 1.99-1.937 1.99-1.937-.9-1.937-1.99.86-1.99 1.937-1.99zm-12.233-.05c1.07 0 1.937.9 1.937 1.99s-.86 1.99-1.937 1.99-1.937-.9-1.937-1.99.86-1.99 1.937-1.99zm-1.496 13.59c-2.318-.366-4.1-1.71-5.226-3.942-.32-.632-.75-1.848-.68-1.918.023-.023.156.06.3.185.9.813 1.79 1.145 2.643.988.783-.145 1.457-.57 3.093-1.962 1.486-1.262 2.23-1.588 3.5-1.536.643.027.797.057 1.255.25.617.26 1.27.684 1.972 1.285l.543.436c.018 0 .22-.168.45-.374.567-.5 1.456-1.086 2.08-1.348.454-.19.6-.222 1.25-.248 1.338-.055 1.938.235 3.906 1.886 1.346 1.13 1.923 1.475 2.688 1.608.777.135 1.62-.158 2.463-.86.217-.18.418-.33.446-.33.06-.002.012.216-.165.76-.2.61-.874 1.94-1.207 2.38-.893 1.183-2 2.005-3.275 2.43-.89.297-1.23.347-2.348.34-.957-.006-1.134-.027-1.852-.214-1.863-.485-3.475-1.634-4.2-2.998-.112-.21-.225-.383-.25-.38s-.132.18-.238.397c-.396.8-1.335 1.713-2.363 2.274-1.09.593-2.2.888-3.496.928-.49.015-1.07 0-1.285-.034z" fill="#12538a"/></svg>